<svg version="1.1" xmlns="http://www.w3.org/2000/svg" xmlns:xlink="http://www.w3.org/1999/xlink" width="483" height="363" viewBox="0,0,483,363"><g transform="translate(1.5,0.5)"><g stroke-miterlimit="10"><path d="M-1.5,362.5v-363h483v363z" fill="#4200ff" stroke="none" stroke-width="NaN" stroke-linecap="butt"/><path d="M103.83966,111.02831c0.61193,0.91271 0.77578,1.84563 0.77578,1.84563c2.51337,14.38745 8.32488,26.55672 21.39833,34.11122c3.93927,2.2763 7.93403,3.15375 12.23793,4.47937c2.88825,0.88959 4.41817,1.91894 7.50374,1.83562c3.89664,-0.10524 8.19143,-1.89794 11.91994,-2.89691c7.22845,-2.4279 16.96083,-5.27587 20.85664,-12.71095c2.15012,-4.10349 -0.82003,-10.71496 -1.68832,-14.74668c-3.41564,-15.86025 -13.72033,-31.84605 -26.36137,-42.22378c-2.7035,-2.24884 -3.61205,-3.44617 -6.84015,-4.62963c-16.23999,-5.95381 -31.32097,14.30685 -37.39577,26.56875c-1.20707,2.43646 -1.72847,5.15618 -2.60833,7.72897zM96.23571,114.81599c-0.50171,-0.92932 -0.58858,-1.82112 -0.58858,-1.82112l-0.13773,-5.38489c6.62654,-19.3765 26.54567,-48.4728 51.05546,-39.59627c4.58432,1.66026 5.6896,3.07071 9.3746,6.07307c14.15713,11.66362 25.30702,29.21773 29.29171,47.00026c1.46965,6.55858 4.14355,13.81156 1.01218,20.39197c-4.68938,9.85447 -16.64537,13.98062 -26.08601,17.14883c-4.48764,1.20683 -9.5263,3.18651 -14.21209,3.26113c-4.90272,0.07807 -5.92073,-0.89928 -10.23062,-2.2167c-4.92565,-1.50565 -9.47814,-2.64537 -13.99651,-5.24727c-15.16588,-8.73329 -22.45508,-22.94313 -25.4824,-39.60899z" fill="#000000" stroke="none" stroke-width="0.5" stroke-linecap="butt"/><path d="M126.15106,76.6072c1.50381,-1.00744 2.68799,-2.53199 4.34858,-3.25231c2.5116,-1.08949 8.42731,-1.3539 11.15637,-1.57168c12.35745,4.16103 23.22581,17.22125 29.02002,28.71289c1.81593,3.60151 2.18205,8.33357 4.74018,11.48071c4.74882,5.84221 10.08152,10.38952 8.90025,18.94228c-1.32194,9.57121 -14.88572,17.23883 -23.30087,19.63314c-7.12611,3.1967 -16.1977,6.03164 -24.23308,4.91876c-5.70165,-0.78965 -9.22838,-4.72942 -13.40982,-8.16851c-12.54544,-10.31821 -22.19241,-24.42227 -19.33931,-41.12222c-0.19151,-1.13637 0.07272,-2.34347 0.82174,-3.3229c0.19139,-10.4291 13.54387,-21.05686 21.29591,-26.25016zM128.64051,134.82024c-0.30845,-0.35211 -0.63073,-0.69211 -0.96166,-1.02454c-0.11716,0.05631 -0.23647,0.10707 -0.35756,0.15226c0.43932,0.28966 0.87862,0.58214 1.31924,0.8723z" fill="#482300" stroke="none" stroke-width="0.5" stroke-linecap="butt"/><path d="M113.79105,78.11314c5.12851,12.64106 -0.82123,26.98916 -13.28912,32.04746c-1.98797,0.80653 14.68807,21.26481 10.45178,22.10877c-9.00581,1.79413 -40.98019,-16.4134 -44.89287,-18.08824c-5.78989,-2.47839 5.15241,-11.40978 2.58,-17.75041c-2.20873,-5.4442 14.01314,-3.24268 15.54976,-8.44168c2.03132,-6.87271 -9.3589,-20.72597 -2.26065,-23.60575c12.46788,-5.05825 26.73258,1.08882 31.86111,13.72986z" fill="#000000" stroke="none" stroke-width="0" stroke-linecap="butt"/><path d="M127.42388,54.88833c6.05889,7.19647 6.00744,17.20898 -0.11493,22.36357c-6.12237,5.15459 -15.99725,3.49931 -22.05614,-3.69716c-3.59811,-4.27367 -15.35763,-15.47786 -14.65419,-20.13058c0.4811,-3.18205 10.60371,2.60333 13.09026,0.50984c3.10664,-2.61556 6.69209,-18.69733 11.16811,-18.66758c3.53761,0.02351 15.56633,27.94338 18.58946,33.81099c0.69003,1.33926 -6.57722,-14.8478 -6.02261,-14.18906z" fill="#000000" stroke="none" stroke-width="0" stroke-linecap="butt"/><path d="M100.73789,43.16161c4.04711,-6.5038 15.75709,7.08025 22.87541,6.24964c5.38479,-0.62832 5.97944,-16.98808 10.9677,-13.88404c5.80961,3.61514 16.47478,-5.64539 17.93043,0.48214c0.98367,4.14083 13.47702,38.74995 10.17468,47.31838c-1.55342,4.03055 -18.87122,-15.88741 -20.00467,-14.06592c-7.10864,11.42373 -22.26069,14.84177 -33.84311,7.6344c-11.58238,-7.20737 -15.20907,-22.31085 -8.10046,-33.73458z" fill="#000000" stroke="none" stroke-width="0" stroke-linecap="butt"/><path d="M138.573,122.60455c1.74899,2.07737 3.92745,3.50428 4.19687,5.84218c0.35743,3.10171 -1.7583,7.06005 -4.02441,8.96795c-1.48987,1.25436 -2.96279,3.54747 -5.17848,3.80126c-3.69459,0.42319 -8.39774,-2.16322 -10.94158,-5.18468c-1.39815,-1.66066 -4.28994,-5.86727 -4.74316,-7.74614c-0.86594,-3.58967 3.51784,-6.17755 6.12658,-8.37392c1.22726,-1.03326 4.70366,-3.9863 6.26941,-4.17863c3.50456,-0.43049 5.48203,3.53112 8.29478,6.87197z" fill="#ffffff" stroke="none" stroke-width="0" stroke-linecap="butt"/><path d="M139.4657,108.59277c0.4563,-1.51007 3.95847,-4.4325 5.18573,-5.46576c2.60874,-2.19637 5.90572,-6.0751 9.29537,-4.61021c1.77417,0.76673 5.42653,4.33297 6.82469,5.99363c2.54384,3.02145 4.2911,8.09651 3.24459,11.66498c-0.62759,2.14004 -3.13814,3.20072 -4.62801,4.45508c-2.26611,1.9079 -6.52706,3.31827 -9.52251,2.43756c-2.2578,-0.66382 -3.29269,-3.05354 -5.04168,-5.13091c-2.81275,-3.34085 -6.37949,-5.96441 -5.35818,-9.34437z" fill="#ffffff" stroke="none" stroke-width="0" stroke-linecap="butt"/><path d="M136.95564,124.63093c0.98255,1.16703 2.30554,3.90001 2.74897,5.06407c0.74011,1.94291 -3.02195,4.80363 -4.02947,5.65189c-0.95487,0.80393 -3.32724,1.28566 -5.0137,0.36272c-1.15912,-0.63434 -2.3617,-1.62285 -3.42995,-2.89166c-1.26637,-1.50413 -2.11239,-3.12715 -2.46734,-4.55624c-0.38012,-1.5304 1.35882,-4.14835 2.19198,-4.8498c1.03697,-0.87306 4.06187,-1.6323 5.67644,-0.2984c0.89399,0.73857 3.38847,0.40735 4.32308,1.51743z" fill="#000000" stroke="none" stroke-width="0" stroke-linecap="butt"/><path d="M158.54007,107.71849c0.98255,1.16703 2.30554,3.90001 2.74897,5.06407c0.74011,1.94291 -3.02195,4.80363 -4.02946,5.65188c-0.95487,0.80393 -3.32723,1.28567 -5.0137,0.36274c-1.15912,-0.63434 -2.3617,-1.62285 -3.42995,-2.89166c-1.26637,-1.50413 -2.11239,-3.12715 -2.46734,-4.55624c-0.3801,-1.53041 1.35884,-4.14834 2.19199,-4.84979c1.03697,-0.87306 4.06187,-1.6323 5.67643,-0.29841c0.89399,0.73859 3.38848,0.40736 4.32308,1.51743z" fill="#000000" stroke="none" stroke-width="0" stroke-linecap="butt"/><path d="M166.67481,129.14038c0,0 -1.99867,6.88169 -4.47512,8.91233c-2.21232,1.81405 -9.68076,2.69512 -9.68076,2.69512" fill="none" stroke="#ff0000" stroke-width="5" stroke-linecap="round"/><text transform="translate(220.5,89.5) scale(1.54009,1.54009)" font-size="40" xml:space="preserve" fill="#ff0000" stroke="none" stroke-width="1" stroke-linecap="butt" font-family="&quot;Arial Rounded MT&quot;, Sans Serif" font-weight="normal" text-anchor="start"><tspan x="0" dy="0">Create</tspan></text><text transform="translate(282.36853,165.53125) rotate(-19.12185) scale(2.67599,2.67599)" font-size="40" xml:space="preserve" fill="#ff0000" stroke="none" stroke-width="1" stroke-linecap="butt" font-family="&quot;Arial Rounded MT&quot;, Sans Serif" font-weight="normal" text-anchor="start"><tspan x="0" dy="0">a</tspan></text><text transform="translate(205.0507,250.25434) rotate(-13.55341) scale(1.51842,1.51842)" font-size="40" xml:space="preserve" fill="#ff0000" stroke="none" stroke-width="1" stroke-linecap="butt" font-family="&quot;Arial Rounded MT&quot;, Sans Serif" font-weight="normal" text-anchor="start"><tspan x="0" dy="0">Account</tspan></text></g></g></svg>