<svg version="1.1" xmlns="http://www.w3.org/2000/svg" xmlns:xlink="http://www.w3.org/1999/xlink" width="90.60413" height="85.57737" viewBox="0,0,90.60413,85.57737"><g transform="translate(-178.09334,-127.58473)"><g stroke-miterlimit="10"><path d="M220.25548,155.053c1.81707,-1.09289 3.4941,-2.45346 5.43789,-3.30068c9.78248,-4.26377 28.955,-8.77583 35.65267,2.93248c1.33134,2.32731 1.27197,3.4979 1.75526,6.19729c2.32879,12.53983 0.44716,27.25172 -5.48108,38.42867c-1.50697,2.84122 -3.05574,8.27707 -6.39938,9.6451c-6.05833,2.47873 -13.29459,-0.71042 -18.82614,-2.89256c-2.72598,-1.27672 -6.18843,-2.36435 -8.56583,-4.25866c-1.88255,-1.50003 -2.27823,-2.88249 -3.55442,-4.86381c-1.9017,-2.95243 -3.84407,-5.48226 -5.05077,-8.81869c-4.00471,-11.0728 -1.35954,-21.25123 4.36723,-31.09642c0,0 0.37081,-0.63883 0.46418,-1.49065z" fill="#000000" stroke="none" stroke-width="0.5" stroke-linecap="butt"/><path d="M251.61117,146.68612c1.40309,0.1543 2.87522,-0.16041 4.22763,0.24391c2.04549,0.61152 5.70732,3.42496 7.44472,4.66572c5.28196,8.68881 6.64316,21.93855 4.328,31.70404c-0.72557,3.06054 -1.92572,7.02545 -1.98032,10.18772c-0.10135,5.87027 -1.59931,10.30321 -6.59964,14.81207c-5.59576,5.04576 -20.89174,6.16088 -27.11435,3.36268c-5.85663,-1.67211 -10.29685,-8.84869 -14.53142,-13.54836c-3.00472,-3.33473 -4.08796,-13.68409 -4.85511,-17.83581c-2.30165,-12.4563 0.94347,-18.52939 11.03306,-27.05879c0.4565,-0.77409 1.22039,-1.36147 2.15914,-1.56955c5.35221,-6.12536 18.65545,-5.75905 25.88828,-4.96364zM222.90053,182.18443c-0.00715,-0.36497 -0.02865,-0.72966 -0.0591,-1.09419c-0.09817,-0.02526 -0.19485,-0.0549 -0.28978,-0.08875c0.1166,0.39344 0.23176,0.78856 0.34888,1.18296z" fill="#482300" stroke="none" stroke-width="0.5" stroke-linecap="butt"/><path d="M234.96111,179.88577c0,2.11769 0.58289,4.06305 -0.4306,5.59304c-1.34461,2.02984 -4.59484,3.32857 -6.90493,3.32857c-1.51879,0 -3.54918,0.62818 -4.99841,-0.33326c-2.41656,-1.60316 -3.92319,-5.50825 -3.92319,-8.58835c0,-1.69289 0.38768,-5.65475 1.06097,-7.00323c1.28634,-2.57634 5.20126,-1.91838 7.86063,-1.91838c1.25108,0 4.80809,-0.01561 5.83875,0.65606c2.30687,1.50336 1.4968,4.85985 1.4968,8.26554z" fill="#ffffff" stroke="none" stroke-width="0" stroke-linecap="butt"/><path d="M242.53109,171.97538c1.03064,-0.67166 4.58766,-0.65606 5.83873,-0.65606c2.65938,0 6.57429,-0.65795 7.86064,1.91839c0.67329,1.34847 1.06096,5.31032 1.06096,7.00321c0,3.0801 -1.50663,6.98519 -3.92319,8.58835c-1.44923,0.96143 -3.47963,0.33326 -4.99841,0.33326c-2.31009,0 -5.56033,-1.29871 -6.90493,-3.32857c-1.01349,-1.52999 -0.43061,-3.47535 -0.43061,-5.59304c0,-3.40569 -0.81005,-6.76218 1.4968,-8.26554z" fill="#ffffff" stroke="none" stroke-width="0" stroke-linecap="butt"/><path d="M232.97852,180.28228c0,1.18968 -0.58341,3.48452 -0.90354,4.40165c-0.53432,1.53076 -4.21538,1.34783 -5.24246,1.34783c-0.9734,0 -2.63059,-0.90415 -3.1731,-2.30176c-0.37288,-0.96059 -0.5938,-2.15428 -0.5938,-3.44772c0,-1.53332 0.31046,-2.92645 0.81649,-3.95725c0.54189,-1.10388 2.89412,-1.79223 3.74345,-1.79223c1.0571,0 3.24294,1.06633 3.53616,2.67299c0.16237,0.8896 1.8168,1.94487 1.8168,3.07649z" fill="#000000" stroke="none" stroke-width="0" stroke-linecap="butt"/><path d="M254.34903,181.03397c0,1.18968 -0.58341,3.48452 -0.90354,4.40165c-0.53432,1.53076 -4.21538,1.34783 -5.24244,1.34783c-0.9734,0 -2.63059,-0.90414 -3.17311,-2.30175c-0.37288,-0.96059 -0.5938,-2.15428 -0.5938,-3.44772c0,-1.53332 0.31046,-2.92645 0.81649,-3.95725c0.5419,-1.10388 2.89412,-1.79222 3.74345,-1.79222c1.0571,0 3.24294,1.06633 3.53616,2.67298c0.16235,0.88962 1.8168,1.94488 1.8168,3.07649z" fill="#000000" stroke="none" stroke-width="0" stroke-linecap="butt"/><path d="M248.44264,197.8989c0,0 -4.64865,3.10144 -7.14587,3.06902c-2.23087,-0.02897 -7.12869,-3.2544 -7.12869,-3.2544" fill="none" stroke="#ff0000" stroke-width="5" stroke-linecap="round"/><path d="" fill="#000000" stroke="none" stroke-width="0.5" stroke-linecap="butt"/><path d="M267.70925,146.50762c0,1.54239 0.68481,14.53914 0.16913,15.97446c-2.97844,8.28998 -15.00067,2.94842 -28.19416,2.94842c-12.68943,0 -25.32532,5.3239 -28.77583,-2.48688c-0.75821,-1.71634 0.7508,-14.55325 0.7508,-16.436c0,-10.45082 12.54724,-18.92289 28.02503,-18.92289c15.47779,0 28.02503,8.47206 28.02503,18.92289z" fill="#ff0000" stroke="none" stroke-width="0" stroke-linecap="butt"/><path d="M218.36603,146.74715c0,6.18105 1.90067,14.56959 -2.61714,18.17005c-3.4109,2.71832 -12.54031,1.47142 -17.26387,1.47142c-7.86418,0 -16.57813,-3.0739 -19.80284,-9.61971c-1.27763,-2.59347 -0.07816,-6.94351 -0.07816,-10.02176c0,-10.84769 13.69163,-10.06027 24.67161,-10.06027c10.97998,0 15.09041,-0.78742 15.09041,10.06027z" fill="#ff0000" stroke="none" stroke-width="0" stroke-linecap="butt"/><path d="M265.79301,154.28984c0,0 -22.42848,2.13323 -28.71482,2.24352c-6.42567,0.11272 -23.80218,-3.49055 -23.80218,-3.49055" fill="none" stroke="#000000" stroke-width="5" stroke-linecap="round"/><path d="M213.09637,164.47238c0,0 -3.18675,-7.41734 -3.10557,-11.96353c0.07841,-4.39088 3.58463,-14.86386 3.58463,-14.86386" fill="none" stroke="#000000" stroke-width="5" stroke-linecap="round"/></g></g></svg>